<svg xmlns="http://www.w3.org/2000/svg" width="464" height="225.028" viewBox="0 0 464 225.028">
  <g id="그룹_8" data-name="그룹 8" transform="translate(-240 -240.883)">
    <g id="그룹_7" data-name="그룹 7" transform="translate(12.671 -72.96)">
      <path id="패스_27" data-name="패스 27" d="M705.576,589.96h0Z" transform="translate(-88.487 -51.088)" fill="#fff"/>
      <path id="패스_28" data-name="패스 28" d="M579.969,538.871,524.289,442.43h0l18.56-32.147h37.12l-18.56-32.147h-37.12l-18.56,32.147-18.56,32.147-18.56,32.147-18.56,32.147-18.56-32.147-18.56-32.147-18.56,32.147-18.56,32.147L264.449,313.843h-37.12l129.92,225.028h37.12l18.56-32.147,18.56,32.147h37.12l18.56-32.147,18.56-32.147,18.56,32.147h0l18.56,32.147h37.119Z" fill="#fff"/>
      <path id="패스_29" data-name="패스 29" d="M614.481,589.96h0Z" transform="translate(-71.633 -51.088)" fill="#fff"/>
      <path id="패스_30" data-name="패스 30" d="M568.933,589.96h0Z" transform="translate(-63.205 -51.088)" fill="#fff"/>
      <path id="패스_31" data-name="패스 31" d="M411.223,410.284l-55.68-96.441h-37.12l74.24,128.587Z" transform="translate(-16.855)" fill="#fff"/>
      <path id="패스_32" data-name="패스 32" d="M687.918,474.577h37.12l-37.12-64.294h0l-18.56-32.147h0l-37.12-64.293H520.878l-18.56,32.146-18.56,32.147-37.12-64.293h-37.12l55.68,96.44,18.56,32.147,18.56-32.147,18.56-32.147,18.56-32.146h74.239l0-.007.006.007,49.375,85.519,6.306,10.922h-74.24l18.56,32.148h0l18.56,32.146h0l18.56,32.147h37.12L650.8,474.577Z" transform="translate(-33.71)" fill="#fff"/>
    </g>
  </g>
</svg>
